<svg width="15" height="15" viewBox="0 0 15 15" fill="none" xmlns="http://www.w3.org/2000/svg">
<path d="M8.75 9.225V2.1875C8.75 1.7731 8.58538 1.37567 8.29235 1.08265C7.99933 0.78962 7.6019 0.625 7.1875 0.625C6.7731 0.625 6.37567 0.78962 6.08265 1.08265C5.78962 1.37567 5.625 1.7731 5.625 2.1875V9.225C5.1233 9.56021 4.7427 10.0479 4.53942 10.616C4.33614 11.1841 4.32095 11.8025 4.4961 12.3799C4.67125 12.9573 5.02744 13.4631 5.51209 13.8225C5.99673 14.182 6.58412 14.376 7.1875 14.376C7.79088 14.376 8.37827 14.182 8.86291 13.8225C9.34756 13.4631 9.70375 12.9573 9.8789 12.3799C10.054 11.8025 10.0389 11.1841 9.83558 10.616C9.6323 10.0479 9.2517 9.56021 8.75 9.225Z" fill="#FF0004"/>
<path d="M9 12.2C9 12.6418 8.66421 13 8.25 13C7.83579 13 7.5 12.6418 7.5 12.2C7.5 11.7582 7.875 11.4 8.25 11C8.625 11.4 9 11.7582 9 12.2Z" fill="white"/>
</svg>
